<svg xmlns="http://www.w3.org/2000/svg" width="24" height="24" viewBox="0 0 24 24" fill="none">
  <path fill-rule="evenodd" clip-rule="evenodd" d="M3.51033 20.4897C-1.17032 15.809 -1.1699 8.19103 3.51033 3.51081C8.19183 -1.17069 15.8085 -1.16984 20.4892 3.51081C25.1698 8.19146 25.1707 15.8082 20.4892 20.4897C15.809 25.1699 8.19098 25.1703 3.51033 20.4897ZM11.9265 3.99633C10.9171 3.99632 10.0957 4.81768 10.0961 5.82665L10.0969 12.9999C10.0965 14.0114 10.9165 14.8315 11.9281 14.8311C12.9375 14.8311 13.7588 14.0097 13.7584 13.0007L13.7576 5.8275C13.7581 4.81598 12.938 3.9959 11.9265 3.99633ZM11.926 16.0022C10.9166 16.0022 10.0952 16.8236 10.0957 17.8325L10.0966 17.8441C10.0962 18.8556 10.9163 19.6757 11.9278 19.6753C12.9372 19.6753 13.7585 18.8539 13.7581 17.8449L13.7571 17.8334C13.7576 16.8219 12.9375 16.0018 11.926 16.0022Z" fill="#EF4C5D"/>
</svg>